PathFileType	4	(X/Y/Z)	C:/Users/beibeiliu/ov580/test_trc/User3\sequence.20_training_dense_left.trc
DataRate	CameraRate	NumFrames	NumMarkers	Units	OrigDataRate	OrigDataStartFrame	OrigNumFrames
120	120	11	19	mm	120	87	346
Frame#	Time	ThumbCMC			ThumbMCP			ThumbIP			ThumbTip			IndexMCP			IndexPIP			IndexTip			MiddleMCP			MiddlePIP			MiddleTip			RingMCP			RingPIP			RingTip			PinkyMCP			PinkyPIP			PinkyTip			BackHand1			BackHand2			BackHand3	
		X0	Y0	Z0	X1	Y1	Z1	X2	Y2	Z2	X3	Y3	Z3	X4	Y4	Z4	X5	Y5	Z5	X6	Y6	Z6	X7	Y7	Z7	X8	Y8	Z8	X9	Y9	Z9	X10	Y10	Z10	X11	Y11	Z11	X12	Y12	Z12	X13	Y13	Z13	X14	Y14	Z14	X15	Y15	Z15	X16	Y16	Z16	X17	Y17	Z17	X18	Y18	Z18	
86	0.716667	-300.834	-5.0698	25.3525	-298.897	17.4065	-3.02422	-280.229	27.7508	-24.4192	-248.539	14.0553	-22.9745	-276.556	-20.1847	-48.9063	-264.094	5.95227	-66.6721	-266.049	18.9498	-33.9643	-259.04	-30.206	-52.1259	-245.867	-4.29647	-66.9834	-246.979	8.30021	-26.0072	-245.418	-34.4832	-43.6161	-228.93	-9.35794	-53.3455	-232.592	4.17493	-26.3252	-233.13	-37.9768	-26.5287	-224.335	-14.7379	-38.2397	-222.218	-2.34679	-11.3988	-258.343	-53.1083	8.42755	-267.01	-57.422	31.7317	-294.304	-40.7916	15.2184	
87	0.725	-299.254	0.537654	25.3679	-294.589	23.6266	-3.02813	-272.855	26.6738	-23.7062	-245.57	18.2077	-26.9017	-277.874	-18.6906	-51.6678	-262.077	3.96229	-67.2924	-262.91	20.2575	-36.1178	-264.643	-28.5139	-56.185	-248.175	-3.73561	-69.6915	-246.003	9.67559	-33.6229	-246.14	-37.605	-44.0396	-232.015	-13.4987	-57.5637	-233.773	2.79255	-27.175	-235.311	-39.6565	-26.8336	-221.468	-18.0599	-39.6949	-221.221	-5.83547	-13.5914	-261.756	-54.5469	6.43438	-267.913	-56.9008	36.3454	-294.317	-38.0312	15.6269	
88	0.733333	-294.751	5.76708	24.0006	-287.044	26.6052	-0.890943	-265.584	31.8595	-28.4726	-240.887	13.0032	-25.8408	-280.528	-15.9716	-48.3651	-262.298	7.3234	-67.1755	-256.826	19.6115	-39.1198	-265.33	-29.7247	-57.7011	-246.362	-6.5845	-69.624	-243.364	8.9689	-36.5205	-250.207	-38.9369	-43.2422	-235.059	-18.589	-59.665	-230.359	-1.84328	-30.7921	-240.364	-42.9854	-28.5537	-226.523	-25.5995	-43.6167	-217.754	-10.9861	-18.8079	-268.706	-52.3033	6.89773	-271.303	-56.5228	33.884	-295.542	-31.3358	12.3953	
89	0.741667	-286.235	10.6032	25.8806	-276.509	29.7148	0.556201	-257.03	30.0229	-25.4283	-237.271	14.3283	-29.3863	-282.676	-10.2806	-48.2952	-261.796	7.68224	-66.5222	-255.36	22.446	-36.8341	-272.097	-26.4479	-57.5755	-250.948	-5.55425	-71.2417	-239.876	4.71606	-35.8877	-260.22	-37.161	-46.5241	-237.738	-22.6461	-62.0426	-231.687	-5.48513	-34.0995	-245.775	-48.8388	-28.8747	-231.415	-31.3524	-47.0665	-222.264	-14.8758	-22.7502	-272.252	-51.6279	5.75497	-275.997	-55.5102	34.1473	-297.739	-25.1938	14.7425	
90	0.75	-279.213	17.6073	31.8578	-264.52	31.5239	4.22389	-246.557	33.8047	-25.915	-233.03	7.45577	-29.2405	-284.473	-3.4969	-44.2945	-263.109	9.74298	-66.958	-248.547	20.6078	-35.4207	-278.462	-18.7393	-51.3939	-255.416	-5.97455	-71.6616	-239.089	2.19782	-33.9388	-268.663	-32.8399	-43.8096	-243.991	-22.0199	-62.8307	-231.628	-10.7271	-29.7568	-255.854	-48.1934	-34.66	-241.477	-33.701	-50.1919	-224.108	-20.8152	-30.11	-281.349	-42.4139	6.10955	-280.82	-50.8766	32.0725	-299.774	-15.5753	19.6213	
91	0.758333	-271.246	20.9058	33.9686	-254.123	36.6537	6.98604	-238.068	34.7436	-20.527	-228.685	9.13488	-29.2441	-282.563	8.70887	-46.5966	-258.432	15.363	-63.014	-242.636	22.1477	-34.1606	-281.05	-8.2516	-49.4527	-251.374	1.41391	-67.602	-237.115	1.26616	-31.6665	-272.557	-26.3809	-49.2112	-246.839	-21.8652	-61.7328	-231.725	-14.8274	-31.7386	-262.895	-43.3752	-30.1411	-243.802	-34.463	-50.5671	-222.566	-25.986	-28.6116	-287.04	-37.1272	5.19634	-288.385	-44.0515	31.6813	-295.297	-8.60864	20.1002	
92	0.766667	-261.352	21.8454	37.4977	-244.588	33.548	12.029	-231.361	32.9055	-20.3572	-227.603	6.30244	-28.4235	-277.649	15.6754	-39.4682	-251.507	21.5561	-60.1264	-235.409	21.245	-33.6036	-278.902	-2.91892	-49.7825	-250.423	2.53121	-65.6649	-235.763	2.26188	-27.5391	-273.707	-20.9345	-47.0301	-245.995	-17.2877	-59.6085	-231.225	-12.9089	-32.0344	-268.887	-38.8371	-34.1474	-248.248	-30.685	-51.5496	-226.557	-26.0587	-27.9285	-288.608	-32.8404	6.12179	-290.545	-36.6648	36.8265	-291.009	-4.57416	26.1254	
93	0.775	-253.641	21.1702	39.391	-236.76	34.1581	10.5935	-225.424	31.5827	-14.9447	-222.349	9.18485	-32.6607	-274.484	27.0878	-35.4892	-248.649	28.4823	-57.8469	-230.512	23.7352	-27.1407	-275.935	9.89583	-50.2573	-248.549	9.6147	-64.0521	-235.361	-0.371762	-27.5896	-274.254	-12.5726	-48.0487	-249.203	-12.5503	-58.9867	-232.83	-10.9996	-27.7905	-272.817	-28.5209	-33.5718	-250.3	-24.9468	-50.7281	-229.984	-27.5227	-26.14	-292.107	-20.4862	8.02492	-290.412	-28.0071	35.9813	-288.705	5.01486	28.6317	
94	0.783333	-247.406	19.043	41.8686	-225.778	35.5106	14.899	-217.895	31.9467	-17.7015	-221.309	9.09859	-29.8144	-266.819	34.8093	-35.4211	-243.529	29.2393	-54.6908	-226.504	22.4003	-27.6891	-272.864	19.5599	-46.5383	-243.593	14.6791	-60.1186	-234.608	-1.31468	-23.7782	-274.958	-3.41675	-44.1296	-249.808	-6.23636	-57.4088	-234.274	-14.923	-25.0058	-274.793	-21.2815	-32.9491	-254.98	-25.7691	-50.7772	-231.768	-30.2537	-26.8004	-289.506	-12.864	11.6937	-292.382	-23.005	38.2504	-282.954	9.24493	31.0355	
95	0.791667	-239.21	17.4933	43.678	-217.25	30.2763	19.4406	-213.917	28.4574	-13.8569	-216.195	8.93741	-31.597	-261.005	39.044	-32.4432	-237.168	30.1836	-50.9251	-223.986	17.16	-21.9445	-271.033	23.223	-42.9934	-245.375	18.6256	-59.7695	-233.777	-1.6699	-24.7561	-275.275	2.99851	-41.4803	-253.348	-3.61732	-55.9414	-236.777	-15.0998	-28.6633	-279.521	-17.8809	-30.4469	-253.474	-20.3214	-47.8672	-236.601	-28.0236	-25.5953	-292.033	-6.25368	11.795	-288.969	-17.0118	41.4622	-275.653	19.1671	36.1263	
96	0.8	-230.977	14.2694	45.2168	-212.679	24.3258	19.5847	-203.664	26.7387	-13.9063	-217.228	6.731	-29.0413	-252.217	42.3616	-24.6131	-228.737	35.1101	-46.9575	-217.688	15.1415	-19.6377	-265.741	28.7893	-34.5248	-242.737	18.4628	-56.4617	-230.299	-1.33605	-26.5622	-271.901	14.4467	-36.0103	-250.027	1.63906	-53.4446	-238.476	-13.9393	-26.9009	-278.05	-5.43408	-29.9858	-256.581	-13.0606	-45.6062	-242.863	-30.6945	-26.9506	-288.885	0.0685158	16.089	-291.418	-11.6764	42.4934	-265.617	19.1346	42.4441	
